<svg xmlns="http://www.w3.org/2000/svg" viewBox="0 0 680 170" width="100%" height="auto">
    <style>
        .meter-bg {
            fill: #06020a;
            stroke: #311840;
            stroke-width: 2.5;
        }
        .label-text {
            fill: #5d4370;
            font-family: 'JetBrains Mono', 'Courier New', monospace;
            font-size: 9px;
            letter-spacing: 1.5px;
        }
        .warning-text {
            fill: #b88a3d;
            font-family: 'JetBrains Mono', 'Courier New', monospace;
            font-size: 6.5px;
            letter-spacing: 1px;
            font-weight: bold;
        }
        .status-text {
            fill: #4a5d23;
            font-family: 'JetBrains Mono', 'Courier New', monospace;
            font-size: 7px;
            letter-spacing: 1px;
        }
        .divergence-glow {
            filter: url(#panel-glow);
        }
        .nixie-digit {
            font-family: 'Courier New', monospace;
            font-size: 75px;
            font-weight: bold;
            text-anchor: middle;
            dominant-baseline: central;
        }
    </style>
    
    <defs>
        <!-- Nixie Filament Glow Filters -->
        <filter id="nixie-glow" x="-50%" y="-50%" width="200%" height="200%">
            <feGaussianBlur stdDeviation="5.0" result="blur1" />
            <feGaussianBlur stdDeviation="10.0" result="blur2" />
            <feMerge>
                <feMergeNode in="blur2" />
                <feMergeNode in="blur1" />
                <feMergeNode in="SourceGraphic" />
            </feMerge>
        </filter>
        
        <filter id="nixie-glow-inner" x="-30%" y="-30%" width="160%" height="160%">
            <feGaussianBlur stdDeviation="2.0" result="blur" />
            <feMerge>
                <feMergeNode in="blur" />
                <feMergeNode in="SourceGraphic" />
            </feMerge>
        </filter>
        
        <!-- Panel & Chassis Glows -->
        <filter id="panel-glow" x="-10%" y="-10%" width="120%" height="120%">
            <feGaussianBlur stdDeviation="12" result="blur" />
            <feComponentTransfer in="blur" result="glow">
                <feFuncA type="linear" slope="0.35"/>
            </feComponentTransfer>
            <feMerge>
                <feMergeNode in="glow" />
                <feMergeNode in="SourceGraphic" />
            </feMerge>
        </filter>

        <filter id="drop-shadow" x="-20%" y="-20%" width="140%" height="140%">
            <feDropShadow dx="2" dy="2" stdDeviation="3" flood-color="#000000" flood-opacity="0.8" />
        </filter>

        <!-- Metal Texture & Gradients -->
        <filter id="metal-noise" x="0%" y="0%" width="100%" height="100%">
            <feTurbulence type="fractalNoise" baseFrequency="0.05" numOctaves="3" result="noise" />
            <feColorMatrix type="matrix" values="1 0 0 0 0  0 1 0 0 0  0 0 1 0 0  0 0 0 0.15 0" in="noise" result="coloredNoise" />
            <feBlend in="SourceGraphic" in2="coloredNoise" mode="multiply" />
        </filter>

        <linearGradient id="chassis-grad" x1="0%" y1="0%" x2="100%" y2="100%">
            <stop offset="0%" stop-color="#1b0d24"/>
            <stop offset="25%" stop-color="#0a0314"/>
            <stop offset="75%" stop-color="#0a0314"/>
            <stop offset="100%" stop-color="#14061b"/>
        </linearGradient>

        <!-- Glass Reflection Gradient -->
        <linearGradient id="glass-gradient" x1="0%" y1="0%" x2="100%" y2="0%">
            <stop offset="0%" stop-color="#ffffff" stop-opacity="0.25"/>
            <stop offset="15%" stop-color="#ffffff" stop-opacity="0.0"/>
            <stop offset="45%" stop-color="#ffffff" stop-opacity="0.0"/>
            <stop offset="55%" stop-color="#ffffff" stop-opacity="0.1"/>
            <stop offset="85%" stop-color="#ffffff" stop-opacity="0.0"/>
            <stop offset="100%" stop-color="#ffffff" stop-opacity="0.2"/>
        </linearGradient>

        <linearGradient id="tube-base-grad" x1="0%" y1="0%" x2="0%" y2="100%">
            <stop offset="0%" stop-color="#2d1c3a"/>
            <stop offset="30%" stop-color="#150a21"/>
            <stop offset="100%" stop-color="#0a0314"/>
        </linearGradient>

        <!-- Metal Grid Mesh Pattern -->
        <pattern id="grid-mesh" width="4" height="4" patternUnits="userSpaceOnUse">
            <line x1="0" y1="0" x2="4" y2="0" stroke="#ff5500" stroke-width="0.3" opacity="0.3"/>
            <line x1="0" y1="0" x2="0" y2="4" stroke="#ff5500" stroke-width="0.3" opacity="0.3"/>
        </pattern>
        
        <!-- Wire Braid Pattern -->
        <pattern id="wire-braid" width="6" height="6" patternUnits="userSpaceOnUse" patternTransform="rotate(45)">
            <line x1="0" y1="0" x2="0" y2="6" stroke="#2a2a2a" stroke-width="2" />
            <line x1="3" y1="0" x2="3" y2="6" stroke="#4a4a4a" stroke-width="1.5" />
        </pattern>
    </defs>

    <!-- Background Chassis Plate -->
    <rect class="meter-bg" width="680" height="170" rx="6" />
    <rect x="0" y="0" width="680" height="170" rx="6" fill="url(#chassis-grad)" filter="url(#metal-noise)" />
    
    <!-- Inner Bevel / Metallic Border -->
    <rect x="4" y="4" width="672" height="162" rx="4" fill="none" stroke="#2d1c3a" stroke-width="1.5" opacity="0.8" />
    <rect x="6" y="6" width="668" height="158" rx="3" fill="none" stroke="#5d4370" stroke-width="0.5" opacity="0.6" />
    
    <!-- Chassis Mounting Screws -->
    <g fill="#150a21" stroke="#311840" stroke-width="0.8">
        <circle cx="15" cy="15" r="3.5" />
        <circle cx="665" cy="15" r="3.5" />
        <circle cx="15" cy="155" r="3.5" />
        <circle cx="665" cy="155" r="3.5" />
        <!-- Screw Specular Highlights -->
        <circle cx="14" cy="14" r="1" fill="#5d4370" stroke="none" />
        <circle cx="664" cy="14" r="1" fill="#5d4370" stroke="none" />
        <circle cx="14" cy="154" r="1" fill="#5d4370" stroke="none" />
        <circle cx="664" cy="154" r="1" fill="#5d4370" stroke="none" />
    </g>

    <!-- Ventilation Grills (Top & Bottom) -->
    <g stroke="#000000" stroke-width="2.5" opacity="0.9">
        <line x1="30" y1="10" x2="650" y2="10" />
        <line x1="30" y1="160" x2="650" y2="160" />
        <line x1="30" y1="14" x2="650" y2="14" />
        <line x1="30" y1="156" x2="650" y2="156" />
    </g>
    <g stroke="#311840" stroke-width="1" opacity="0.6">
        <line x1="30" y1="10" x2="650" y2="10" />
        <line x1="30" y1="160" x2="650" y2="160" />
    </g>

    <!-- Warning Stripes / Hazard Markers -->
    <g fill="#b88a3d" opacity="0.8">
        <rect x="24" y="28" width="3" height="15" />
        <rect x="24" y="127" width="3" height="15" />
        <rect x="653" y="28" width="3" height="15" />
        <rect x="653" y="127" width="3" height="15" />
    </g>

    <!-- Status LEDs -->
    <g>
        <!-- Power LED -->
        <circle cx="640" cy="24" r="2.5" fill="#0a1a0a" stroke="#1a3a1a" stroke-width="0.5" />
        <circle cx="640" cy="24" r="1.5" fill="#33ff33" filter="url(#nixie-glow-inner)" />
        <!-- Active LED -->
        <circle cx="660" cy="24" r="2.5" fill="#1a0a0a" stroke="#3a1a1a" stroke-width="0.5" />
        <circle cx="660" cy="24" r="1.5" fill="#ff3333" filter="url(#nixie-glow-inner)" />
    </g>

    <!-- Background Cable Loom -->
    <g fill="none" stroke-linecap="round" stroke-linejoin="round">
        <path d="M 30 160 Q 150 170 340 165 Q 530 160 650 155" stroke="#1a1a1a" stroke-width="12" />
        <path d="M 30 160 Q 150 170 340 165 Q 530 160 650 155" stroke="url(#wire-braid)" stroke-width="12" opacity="0.6" />
        <path d="M 50 160 Q 180 175 350 168" stroke="#2d2d2d" stroke-width="6" />
        <path d="M 600 158 Q 500 170 340 165" stroke="#2d2d2d" stroke-width="8" />
    </g>

    <!-- Nixie Tubes Array -->
    <g class="divergence-glow" transform="translate(10, 5)">
        
        <!-- Nixie Digit Tube '1' -->
        <g transform="translate(40, 0)">
            <rect x="5" y="15" width="55" height="120" rx="10" fill="url(#grid-mesh)" opacity="0.5" stroke="#5d4370" stroke-width="0.5" />
            <rect x="2" y="10" width="61" height="130" rx="15" fill="none" stroke="#311840" stroke-width="1.5" opacity="0.9" />
            <rect x="5" y="13" width="55" height="124" rx="12" fill="url(#glass-gradient)" opacity="0.15" />
            <line x1="12" y1="15" x2="12" y2="135" stroke="#331b40" stroke-width="0.8" opacity="0.7" />
            <line x1="52" y1="15" x2="52" y2="135" stroke="#331b40" stroke-width="0.8" opacity="0.7" />
            <text x="33" y="93" class="nixie-digit" fill="#ff5500" opacity="0.05" filter="url(#drop-shadow)">8</text>
            <text x="32" y="92" class="nixie-digit" fill="#ff5500" filter="url(#nixie-glow)">1</text>
            <text x="32" y="92" class="nixie-digit" fill="#ffcc66" filter="url(#nixie-glow-inner)" opacity="0.9">1</text>
            <text x="32" y="92" class="nixie-digit" fill="#ffffff" opacity="0.9">1</text>
            <rect x="2" y="135" width="61" height="15" rx="3" fill="url(#tube-base-grad)" stroke="#150a21" stroke-width="1" />
            <!-- Base Pins -->
            <rect x="12" y="148" width="3" height="8" fill="#b8b8b8" />
            <rect x="22" y="148" width="3" height="8" fill="#b8b8b8" />
            <rect x="32" y="148" width="3" height="8" fill="#b8b8b8" />
            <rect x="42" y="148" width="3" height="8" fill="#b8b8b8" />
            <rect x="52" y="148" width="3" height="8" fill="#b8b8b8" />
        </g>
        
        <!-- Nixie Dot Tube '.' -->
        <g transform="translate(117, 0)">
            <rect x="20" y="25" width="25" height="100" rx="12.5" fill="url(#grid-mesh)" opacity="0.5" />
            <rect x="17" y="22" width="31" height="106" rx="15.5" fill="none" stroke="#311840" stroke-width="1.5" opacity="0.9" />
            <rect x="20" y="25" width="25" height="100" rx="12.5" fill="url(#glass-gradient)" opacity="0.15" />
            <circle cx="32" cy="105" r="5" fill="#ff5500" filter="url(#nixie-glow)" />
            <circle cx="32" cy="105" r="3" fill="#ffcc66" filter="url(#nixie-glow-inner)" />
            <circle cx="32" cy="105" r="1.5" fill="#ffffff" />
            <rect x="17" y="135" width="31" height="15" rx="3" fill="url(#tube-base-grad)" stroke="#150a21" stroke-width="1" />
            <rect x="27" y="148" width="3" height="8" fill="#b8b8b8" />
            <rect x="37" y="148" width="3" height="8" fill="#b8b8b8" />
        </g>
        
        <!-- Nixie Digit Tube '0' -->
        <g transform="translate(194, 0)">
            <rect x="5" y="15" width="55" height="120" rx="10" fill="url(#grid-mesh)" opacity="0.5" stroke="#5d4370" stroke-width="0.5" />
            <rect x="2" y="10" width="61" height="130" rx="15" fill="none" stroke="#311840" stroke-width="1.5" opacity="0.9" />
            <rect x="5" y="13" width="55" height="124" rx="12" fill="url(#glass-gradient)" opacity="0.15" />
            <line x1="12" y1="15" x2="12" y2="135" stroke="#331b40" stroke-width="0.8" opacity="0.7" />
            <line x1="52" y1="15" x2="52" y2="135" stroke="#331b40" stroke-width="0.8" opacity="0.7" />
            <text x="33" y="93" class="nixie-digit" fill="#ff5500" opacity="0.05" filter="url(#drop-shadow)">8</text>
            <text x="32" y="92" class="nixie-digit" fill="#ff5500" filter="url(#nixie-glow)">0</text>
            <text x="32" y="92" class="nixie-digit" fill="#ffcc66" filter="url(#nixie-glow-inner)" opacity="0.9">0</text>
            <text x="32" y="92" class="nixie-digit" fill="#ffffff" opacity="0.9">0</text>
            <rect x="2" y="135" width="61" height="15" rx="3" fill="url(#tube-base-grad)" stroke="#150a21" stroke-width="1" />
            <rect x="12" y="148" width="3" height="8" fill="#b8b8b8" />
            <rect x="22" y="148" width="3" height="8" fill="#b8b8b8" />
            <rect x="32" y="148" width="3" height="8" fill="#b8b8b8" />
            <rect x="42" y="148" width="3" height="8" fill="#b8b8b8" />
            <rect x="52" y="148" width="3" height="8" fill="#b8b8b8" />
        </g>
        
        <!-- Nixie Digit Tube '4' -->
        <g transform="translate(271, 0)">
            <rect x="5" y="15" width="55" height="120" rx="10" fill="url(#grid-mesh)" opacity="0.5" stroke="#5d4370" stroke-width="0.5" />
            <rect x="2" y="10" width="61" height="130" rx="15" fill="none" stroke="#311840" stroke-width="1.5" opacity="0.9" />
            <rect x="5" y="13" width="55" height="124" rx="12" fill="url(#glass-gradient)" opacity="0.15" />
            <line x1="12" y1="15" x2="12" y2="135" stroke="#331b40" stroke-width="0.8" opacity="0.7" />
            <line x1="52" y1="15" x2="52" y2="135" stroke="#331b40" stroke-width="0.8" opacity="0.7" />
            <text x="33" y="93" class="nixie-digit" fill="#ff5500" opacity="0.05" filter="url(#drop-shadow)">8</text>
            <text x="32" y="92" class="nixie-digit" fill="#ff5500" filter="url(#nixie-glow)">4</text>
            <text x="32" y="92" class="nixie-digit" fill="#ffcc66" filter="url(#nixie-glow-inner)" opacity="0.9">4</text>
            <text x="32" y="92" class="nixie-digit" fill="#ffffff" opacity="0.9">4</text>
            <rect x="2" y="135" width="61" height="15" rx="3" fill="url(#tube-base-grad)" stroke="#150a21" stroke-width="1" />
            <rect x="12" y="148" width="3" height="8" fill="#b8b8b8" />
            <rect x="22" y="148" width="3" height="8" fill="#b8b8b8" />
            <rect x="32" y="148" width="3" height="8" fill="#b8b8b8" />
            <rect x="42" y="148" width="3" height="8" fill="#b8b8b8" />
            <rect x="52" y="148" width="3" height="8" fill="#b8b8b8" />
        </g>
        
        <!-- Nixie Digit Tube '8' -->
        <g transform="translate(348, 0)">
            <rect x="5" y="15" width="55" height="120" rx="10" fill="url(#grid-mesh)" opacity="0.5" stroke="#5d4370" stroke-width="0.5" />
            <rect x="2" y="10" width="61" height="130" rx="15" fill="none" stroke="#311840" stroke-width="1.5" opacity="0.9" />
            <rect x="5" y="13" width="55" height="124" rx="12" fill="url(#glass-gradient)" opacity="0.15" />
            <line x1="12" y1="15" x2="12" y2="135" stroke="#331b40" stroke-width="0.8" opacity="0.7" />
            <line x1="52" y1="15" x2="52" y2="135" stroke="#331b40" stroke-width="0.8" opacity="0.7" />
            <text x="33" y="93" class="nixie-digit" fill="#ff5500" opacity="0.05" filter="url(#drop-shadow)">8</text>
            <text x="32" y="92" class="nixie-digit" fill="#ff5500" filter="url(#nixie-glow)">8</text>
            <text x="32" y="92" class="nixie-digit" fill="#ffcc66" filter="url(#nixie-glow-inner)" opacity="0.9">8</text>
            <text x="32" y="92" class="nixie-digit" fill="#ffffff" opacity="0.9">8</text>
            <rect x="2" y="135" width="61" height="15" rx="3" fill="url(#tube-base-grad)" stroke="#150a21" stroke-width="1" />
            <rect x="12" y="148" width="3" height="8" fill="#b8b8b8" />
            <rect x="22" y="148" width="3" height="8" fill="#b8b8b8" />
            <rect x="32" y="148" width="3" height="8" fill="#b8b8b8" />
            <rect x="42" y="148" width="3" height="8" fill="#b8b8b8" />
            <rect x="52" y="148" width="3" height="8" fill="#b8b8b8" />
        </g>
        
        <!-- Nixie Digit Tube '5' -->
        <g transform="translate(425, 0)">
            <rect x="5" y="15" width="55" height="120" rx="10" fill="url(#grid-mesh)" opacity="0.5" stroke="#5d4370" stroke-width="0.5" />
            <rect x="2" y="10" width="61" height="130" rx="15" fill="none" stroke="#311840" stroke-width="1.5" opacity="0.9" />
            <rect x="5" y="13" width="55" height="124" rx="12" fill="url(#glass-gradient)" opacity="0.15" />
            <line x1="12" y1="15" x2="12" y2="135" stroke="#331b40" stroke-width="0.8" opacity="0.7" />
            <line x1="52" y1="15" x2="52" y2="135" stroke="#331b40" stroke-width="0.8" opacity="0.7" />
            <text x="33" y="93" class="nixie-digit" fill="#ff5500" opacity="0.05" filter="url(#drop-shadow)">8</text>
            <text x="32" y="92" class="nixie-digit" fill="#ff5500" filter="url(#nixie-glow)">5</text>
            <text x="32" y="92" class="nixie-digit" fill="#ffcc66" filter="url(#nixie-glow-inner)" opacity="0.9">5</text>
            <text x="32" y="92" class="nixie-digit" fill="#ffffff" opacity="0.9">5</text>
            <rect x="2" y="135" width="61" height="15" rx="3" fill="url(#tube-base-grad)" stroke="#150a21" stroke-width="1" />
            <rect x="12" y="148" width="3" height="8" fill="#b8b8b8" />
            <rect x="22" y="148" width="3" height="8" fill="#b8b8b8" />
            <rect x="32" y="148" width="3" height="8" fill="#b8b8b8" />
            <rect x="42" y="148" width="3" height="8" fill="#b8b8b8" />
            <rect x="52" y="148" width="3" height="8" fill="#b8b8b8" />
        </g>
        
        <!-- Nixie Digit Tube '9' -->
        <g transform="translate(502, 0)">
            <rect x="5" y="15" width="55" height="120" rx="10" fill="url(#grid-mesh)" opacity="0.5" stroke="#5d4370" stroke-width="0.5" />
            <rect x="2" y="10" width="61" height="130" rx="15" fill="none" stroke="#311840" stroke-width="1.5" opacity="0.9" />
            <rect x="5" y="13" width="55" height="124" rx="12" fill="url(#glass-gradient)" opacity="0.15" />
            <line x1="12" y1="15" x2="12" y2="135" stroke="#331b40" stroke-width="0.8" opacity="0.7" />
            <line x1="52" y1="15" x2="52" y2="135" stroke="#331b40" stroke-width="0.8" opacity="0.7" />
            <text x="33" y="93" class="nixie-digit" fill="#ff5500" opacity="0.05" filter="url(#drop-shadow)">8</text>
            <text x="32" y="92" class="nixie-digit" fill="#ff5500" filter="url(#nixie-glow)">9</text>
            <text x="32" y="92" class="nixie-digit" fill="#ffcc66" filter="url(#nixie-glow-inner)" opacity="0.9">9</text>
            <text x="32" y="92" class="nixie-digit" fill="#ffffff" opacity="0.9">9</text>
            <rect x="2" y="135" width="61" height="15" rx="3" fill="url(#tube-base-grad)" stroke="#150a21" stroke-width="1" />
            <rect x="12" y="148" width="3" height="8" fill="#b8b8b8" />
            <rect x="22" y="148" width="3" height="8" fill="#b8b8b8" />
            <rect x="32" y="148" width="3" height="8" fill="#b8b8b8" />
            <rect x="42" y="148" width="3" height="8" fill="#b8b8b8" />
            <rect x="52" y="148" width="3" height="8" fill="#b8b8b8" />
        </g>
        
        <!-- Nixie Digit Tube '6' -->
        <g transform="translate(579, 0)">
            <rect x="5" y="15" width="55" height="120" rx="10" fill="url(#grid-mesh)" opacity="0.5" stroke="#5d4370" stroke-width="0.5" />
            <rect x="2" y="10" width="61" height="130" rx="15" fill="none" stroke="#311840" stroke-width="1.5" opacity="0.9" />
            <rect x="5" y="13" width="55" height="124" rx="12" fill="url(#glass-gradient)" opacity="0.15" />
            <line x1="12" y1="15" x2="12" y2="135" stroke="#331b40" stroke-width="0.8" opacity="0.7" />
            <line x1="52" y1="15" x2="52" y2="135" stroke="#331b40" stroke-width="0.8" opacity="0.7" />
            <text x="33" y="93" class="nixie-digit" fill="#ff5500" opacity="0.05" filter="url(#drop-shadow)">8</text>
            <text x="32" y="92" class="nixie-digit" fill="#ff5500" filter="url(#nixie-glow)">6</text>
            <text x="32" y="92" class="nixie-digit" fill="#ffcc66" filter="url(#nixie-glow-inner)" opacity="0.9">6</text>
            <text x="32" y="92" class="nixie-digit" fill="#ffffff" opacity="0.9">6</text>
            <rect x="2" y="135" width="61" height="15" rx="3" fill="url(#tube-base-grad)" stroke="#150a21" stroke-width="1" />
            <rect x="12" y="148" width="3" height="8" fill="#b8b8b8" />
            <rect x="22" y="148" width="3" height="8" fill="#b8b8b8" />
            <rect x="32" y="148" width="3" height="8" fill="#b8b8b8" />
            <rect x="42" y="148" width="3" height="8" fill="#b8b8b8" />
            <rect x="52" y="148" width="3" height="8" fill="#b8b8b8" />
        </g>
    </g>

    <!-- Foreground Wiring & Connectors -->
    <g fill="none" stroke-linecap="round" stroke-linejoin="round">
        <!-- Twisted Pair Wires connecting base pins -->
        <path d="M 62 153 Q 80 165 100 165" stroke="#4a3b3b" stroke-width="2" />
        <path d="M 72 153 Q 85 168 105 168" stroke="#3b4a4a" stroke-width="2" />
        
        <path d="M 169 153 Q 180 165 190 165" stroke="#4a3b3b" stroke-width="2" />
        <path d="M 179 153 Q 185 168 195 168" stroke="#3b4a4a" stroke-width="2" />
        
        <path d="M 246 153 Q 260 160 280 162" stroke="#4a3b3b" stroke-width="2" />
        <path d="M 256 153 Q 265 163 285 165" stroke="#3b4a4a" stroke-width="2" />
        
        <path d="M 323 153 Q 340 158 350 165" stroke="#4a3b3b" stroke-width="2" />
        <path d="M 333 153 Q 345 163 355 168" stroke="#3b4a4a" stroke-width="2" />
        
        <path d="M 400 153 Q 420 165 430 165" stroke="#4a3b3b" stroke-width="2" />
        <path d="M 410 153 Q 425 168 435 168" stroke="#3b4a4a" stroke-width="2" />
        
        <path d="M 477 153 Q 490 160 510 162" stroke="#4a3b3b" stroke-width="2" />
        <path d="M 487 153 Q 495 163 515 165" stroke="#3b4a4a" stroke-width="2" />
        
        <path d="M 554 153 Q 570 165 590 162" stroke="#4a3b3b" stroke-width="2" />
        <path d="M 564 153 Q 575 168 595 165" stroke="#3b4a4a" stroke-width="2" />
        
        <path d="M 631 153 Q 640 162 650 165" stroke="#4a3b3b" stroke-width="2" />
        <path d="M 641 153 Q 645 168 655 168" stroke="#3b4a4a" stroke-width="2" />
    </g>

    <!-- Global Glass Reflections / Dust Layer (Overlay) -->
    <rect x="20" y="20" width="640" height="130" rx="15" fill="url(#glass-gradient)" opacity="0.05" pointer-events="none" />
    
    <!-- Subtle Lens Dirt / Scratches -->
    <g opacity="0.08" fill="none" stroke="#ffffff" stroke-width="0.5">
        <circle cx="120" cy="80" r="15" />
        <circle cx="118" cy="78" r="10" stroke-dasharray="2 4" />
        <circle cx="560" cy="50" r="25" />
        <line x1="200" y1="40" x2="210" y2="60" />
        <line x1="400" y1="110" x2="420" y2="105" />
    </g>

    <!-- Technical Labels & Text -->
    <g>
        <!-- Top Left Status -->
        <text x="35" y="24" class="status-text">SERN QUANTUM UPLINK: ACTIVE</text>
        <text x="35" y="34" class="status-text">DIVERGENCE FIELD: STABLE</text>
        
        <!-- Top Right Warning -->
        <text x="645" y="34" class="warning-text" text-anchor="end">CAUTION: HIGH ENERGY</text>
        <text x="645" y="44" class="warning-text" text-anchor="end">NIXIE DRIVER V.2.31</text>

        <!-- Bottom Left Calibration Markers -->
        <text x="35" y="155" class="label-text">FUTURE GADGET #8 // PHONE MICROWAVE (TEMP)</text>

        <!-- Bottom Right Divergence Tracker (Canonical Steins;Gate Text) -->
        <text x="645" y="152" class="label-text" text-anchor="end">TARGET DIVERGENCE: 1.048596%</text>
        <text x="645" y="164" class="label-text" text-anchor="end">// STEINS;GATE WORLD LINE METER</text>
    </g>
</svg>
